#!OML:ASF H:\Dans Jumps\Project 1\Capture day 1\Session 1\subject.ASF
:FULLY-SPECIFIED
:DEGREES
1232
root -1.05303 17.9735 1.9702 3.03143 16.1225 4.51135
lowerback 10.8745 -0.96575 -1.17622
upperback 7.54696 -1.31173 -0.733778
thorax 1.78109 -0.657582 0.0196434
lowerneck -16.8 -0.899319 -0.916888
upperneck 7.63405 -1.18008 1.53398
head 5.02565 -0.495041 0.522816
rclavicle 2.27608e-014 1.41137e-014
rhumerus -19.9687 3.83892 -87.444
rradius 37.602
rwrist 14.0043
rhand -31.9909 -27.4256
rfingers 7.12502
rthumb -5.23999 -57.3408
lclavicle 2.27608e-014 1.41137e-014
lhumerus -25.7421 -3.23632 74.2762
lradius 41.9694
lwrist 23.8153
lhand -34.0427 -15.2755
lfingers 7.12502
lthumb -7.22079 14.5813
rfemur -9.79137 -13.2499 19.2329
rtibia 20.5443
rfoot -14.8409 -21.4227
rtoes 25.9867
lfemur -67.0739 16.3259 -16.773
ltibia 90.9631
lfoot -19.1818 8.70709
ltoes -20.067
1233
root -0.999345 17.9591 1.97059 3.06215 15.7321 4.34378
lowerback 10.764 -0.973926 -0.877142
upperback 7.46789 -1.30088 -0.549416
thorax 1.75445 -0.646461 0.0408075
lowerneck -16.8265 -0.835743 -0.971833
upperneck 7.8673 -1.06223 1.33825
head 5.10074 -0.452659 0.480509
rclavicle 3.6477e-014 -5.56597e-015
rhumerus -19.7912 3.76689 -87.2763
rradius 37.2484
rwrist 14.0805
rhand -31.8865 -27.2884
rfingers 7.12502
rthumb -5.13911 -57.2061
lclavicle 3.6477e-014 -5.56597e-015
lhumerus -26.2362 -3.52308 74.8198
lradius 41.9513
lwrist 23.8852
lhand -33.8052 -14.7426
lfingers 7.12502
lthumb -6.99151 15.1219
rfemur -10.1488 -13.2961 19.2302
rtibia 21.0726
rfoot -15.2631 -20.9195
rtoes 25.1432
lfemur -65.1346 16.3072 -16.9247
ltibia 89.6085
lfoot -18.6772 7.28478
ltoes -21.6935
1234
root -0.945427 17.9458 1.97392 3.02844 15.3268 4.11482
lowerback 10.685 -0.991276 -0.519507
upperback 7.41326 -1.29749 -0.379819
thorax 1.73513 -0.636655 0.0147004
lowerneck -16.9214 -0.775186 -0.961145
upperneck 8.15402 -0.958886 1.11782
head 5.20366 -0.417203 0.418375
rclavicle 3.77691e-015 1.27222e-014
rhumerus -19.7308 3.48132 -87.1533
rradius 37.2027
rwrist 14.413
rhand -31.7477 -27.0993
rfingers 7.12502
rthumb -5.00512 -57.0202
lclavicle 3.77691e-015 1.27222e-014
lhumerus -26.7716 -3.80417 75.3134
lradius 41.9096
lwrist 23.9022
lhand -33.393 -14.4282
lfingers 7.12502
lthumb -6.59365 15.4492
rfemur -10.4496 -13.2519 19.281
rtibia 21.617
rfoot -15.6348 -20.4717
rtoes 24.3084
lfemur -63.1327 16.331 -17.008
ltibia 88.1197
lfoot -17.9482 5.78778
ltoes -22.6563
1235
root -0.887622 17.9305 1.97955 3.09905 14.8864 4.01617
lowerback 10.5317 -0.999622 -0.257357
upperback 7.32414 -1.2905 -0.262154
thorax 1.72117 -0.627576 -0.0129351
lowerneck -16.9299 -0.670992 -0.825713
upperneck 8.34278 -0.812976 0.809364
head 5.26098 -0.364173 0.312673
rclavicle -2.18663e-015 9.93923e-015
rhumerus -19.5345 3.21783 -87.0365
rradius 36.8598
rwrist 14.6975
rhand -31.4479 -27.04
rfingers 7.12502
rthumb -4.7156 -56.9675
lclavicle -2.18663e-015 9.93923e-015
lhumerus -27.3469 -4.10333 75.8019
lradius 41.9758
lwrist 23.9399
lhand -33.0803 -13.7336
lfingers 7.12502
lthumb -6.29173 16.1529
rfemur -10.8569 -13.2426 19.1912
rtibia 22.2271
rfoot -16.0001 -19.9328
rtoes 23.6103
lfemur -61.1427 16.344 -17.267
ltibia 86.4955
lfoot -16.9965 4.432
ltoes -23.1826
1236
root -0.830693 17.9116 1.98802 3.14887 14.4286 3.84743
lowerback 10.3557 -1.0023 0.00239432
upperback 7.25368 -1.27686 -0.104223
thorax 1.7405 -0.61623 0.00114845
lowerneck -16.7485 -0.629414 -0.806881
upperneck 8.35937 -0.738723 0.613501
head 5.2356 -0.342325 0.255127
rclavicle 1.70955e-014 -8.74653e-015
rhumerus -19.428 2.89282 -86.9013
rradius 36.7119
rwrist 14.9816
rhand -31.0694 -26.9604
rfingers 7.12502
rthumb -4.35015 -56.8957
lclavicle 1.70955e-014 -8.74653e-015
lhumerus -27.983 -4.28965 76.327
lradius 42.1349
lwrist 23.8477
lhand -32.7458 -12.89
lfingers 7.12502
lthumb -5.96876 17.0059
rfemur -11.2856 -13.0964 19.1882
rtibia 22.8897
rfoot -16.3442 -19.5667
rtoes 22.8046
lfemur -59.1457 16.3842 -17.4505
ltibia 84.7434
lfoot -15.7196 3.13047
ltoes -23.1079
1237
root -0.773163 17.8927 1.99594 3.25501 13.9365 3.75575
lowerback 10.2634 -0.993693 0.169889
upperback 7.10233 -1.25626 0.0318715
thorax 1.63131 -0.604498 0.0461423
lowerneck -16.6245 -0.520478 -0.764465
upperneck 8.45872 -0.579211 0.417608
head 5.24512 -0.277798 0.201394
rclavicle 4.37326e-015 -1.19271e-014
rhumerus -19.4816 2.62028 -86.7613
rradius 36.6552
rwrist 15.1483
rhand -30.6134 -26.8288
rfingers 7.12502
rthumb -3.90977 -56.7726
lclavicle 4.37326e-015 -1.19271e-014
lhumerus -28.6826 -4.58943 76.8579
lradius 42.2541
lwrist 23.8951
lhand -32.3001 -12.2759
lfingers 7.12502
lthumb -5.53846 17.6317
rfemur -11.8201 -12.9086 19.1071
rtibia 23.6662
rfoot -16.7817 -19.2036
rtoes 22.1587
lfemur -57.1942 16.4727 -17.7694
ltibia 82.8366
lfoot -14.3239 1.91206
ltoes -22.2609
